<svg width="61" height="38" viewBox="0 0 61 38" fill="none" xmlns="http://www.w3.org/2000/svg">
  <path d="M22.3062 19.4977H19.2042C17.883 19.4977 16.8107 20.57 16.8107 21.8912C16.8107 23.2124 17.883 24.2847 19.2042 24.2847H23.1789C23.848 24.2847 24.4321 24.7251 24.6651 25.3523C25.4149 27.3709 26.5089 29.223 27.8751 30.8365C28.5756 31.6631 27.9979 32.93 26.9145 32.93H23.7056C22.5599 32.93 21.5722 33.8108 21.5179 34.9565C21.4605 36.1788 22.4354 37.1889 23.6449 37.1889H39.3878C40.224 37.3054 41.076 37.366 41.9441 37.366C52.2011 37.366 60.5033 28.9839 60.3709 18.6934C60.2417 8.74443 52.1197 0.630442 42.1707 0.509171C40.7761 0.491619 39.4165 0.630442 38.1081 0.908089C34.9806 1.57189 31.7876 1.87826 28.5915 1.87826H13.3337C12.0444 1.87826 10.9338 2.86917 10.8732 4.15847C10.8077 5.53394 11.904 6.67006 13.2651 6.67006H23.0705C25.0954 6.67006 26.4166 8.80666 25.5007 10.6114C25.4895 10.6321 25.48 10.6529 25.4688 10.6736C25.0092 11.5911 24.0678 12.1687 23.0402 12.1687H10.4934C9.2041 12.1687 8.09351 13.1597 8.03287 14.449C7.96745 15.8244 9.06368 16.9605 10.4248 16.9605H22.3046C23.0242 16.9605 23.5987 17.5573 23.5715 18.277C23.546 18.9583 22.9859 19.4961 22.3046 19.4961L22.3062 19.4977ZM36.7757 7.88756C36.9417 5.31055 39.0352 3.22022 41.6122 3.05905C44.7381 2.86438 47.3119 5.4398 47.1141 8.56572C46.9513 11.1443 44.8594 13.2362 42.2792 13.399C39.1485 13.5969 36.5715 11.0151 36.7741 7.88596L36.7757 7.88756ZM26.4118 16.1404C26.2187 13.0145 28.7942 10.4422 31.9201 10.6401C34.5003 10.8028 36.5922 12.8964 36.7534 15.4766C36.9496 18.6073 34.3662 21.1827 31.2371 20.98C28.6601 20.8125 26.5714 18.719 26.4102 16.142L26.4118 16.1404ZM40.4426 28.0409C40.2798 30.6195 38.1879 32.7114 35.6093 32.8742C32.4786 33.072 29.8984 30.4902 30.101 27.3611C30.2686 24.7825 32.3621 22.6938 34.9407 22.5326C38.0666 22.338 40.6388 24.915 40.4426 28.0409ZM42.2425 20.6338C41.0665 20.8301 40.0612 19.8296 40.2511 18.6536C40.366 17.9419 40.9372 17.3658 41.6489 17.2462C42.8249 17.0499 43.8334 18.0488 43.6435 19.2264C43.5286 19.9397 42.9557 20.5157 42.2425 20.6354V20.6338ZM53.792 28.0377C53.6308 30.6163 51.5405 32.7098 48.9619 32.8742C45.8311 33.0752 43.2509 30.4934 43.452 27.3643C43.6164 24.7873 45.7067 22.6954 48.2837 22.5326C51.408 22.3348 53.9866 24.9118 53.792 28.0377ZM52.3096 20.9912C49.4469 20.9912 47.1268 18.6711 47.1268 15.8117C47.1268 12.9522 49.6496 10.4327 52.6798 10.6433C55.236 10.8204 57.3056 12.8932 57.4796 15.4494C57.6854 18.4764 55.2903 20.9928 52.3112 20.9928L52.3096 20.9912Z" fill="#9534D2"/>
  <rect x="13.0822" y="33.0091" width="6.42883" height="4.28589" rx="2.14294" fill="#9534D2"/>
  <rect x="0.403137" y="1.93646" width="8.03604" height="4.64304" rx="2.27732" fill="#9534D2"/>
</svg>



